# xmcd
#
# Track frame offsets: 
#        150
#        12124
#        26109
#        51820
#        63052
#        82765
#        97877
#        122456
#        140696
#        174239
#        194613
#        225145
#        248107
#        267974
#
# Disc length: 3875 seconds
#
# Revision: 0
# Processed by: cddbd v1.5.2PL0 Copyright (c) Steve Scherf et al.
# Submitted via: ExactAudioCopy v0.95b4
#
DISCID=a40f210e
DTITLE=Blue Machine - Rockin' the Blues
DYEAR=2010
DGENRE=Blues
TTITLE0=All your love
TTITLE1=Howlin' for my baby
TTITLE2=Ró¿a
TTITLE3=Down in the bottom
TTITLE4=Thrill is gone
TTITLE5=Study war no more
TTITLE6=Widzê
TTITLE7=Ain't no sunshine
TTITLE8=Sitting on the top of the world
TTITLE9=Room to move
TTITLE10=I put a spell on you
TTITLE11=If i had possession over judgement day
TTITLE12=Catfish
TTITLE13=Podziemia miasta
EXTD=
EXTT0=
EXTT1=
EXTT2=
EXTT3=
EXTT4=
EXTT5=
EXTT6=
EXTT7=
EXTT8=
EXTT9=
EXTT10=
EXTT11=
EXTT12=
EXTT13=
PLAYORDER=
